<svg width="17" height="20" viewBox="0 0 17 20" fill="none" xmlns="http://www.w3.org/2000/svg">
<path d="M1.66667 6.66667C1.66667 4.89856 2.36905 3.20286 3.61929 1.95262C4.86953 0.702379 6.56522 0 8.33333 0C10.1014 0 11.7971 0.702379 13.0474 1.95262C14.2976 3.20286 15 4.89856 15 6.66667V10.5808L16.6667 13.0808V16.6667H11.9908C11.8013 17.4948 11.3363 18.234 10.672 18.7635C10.0076 19.2929 9.18326 19.5812 8.33375 19.5812C7.48424 19.5812 6.65988 19.2929 5.99554 18.7635C5.3312 18.234 4.86622 17.4948 4.67667 16.6667H0V13.0808L1.66667 10.5808V6.66667ZM6.42333 16.6667C6.58532 17.0385 6.85234 17.355 7.19162 17.5773C7.53091 17.7996 7.92771 17.918 8.33333 17.918C8.73895 17.918 9.13575 17.7996 9.47504 17.5773C9.81433 17.355 10.0813 17.0385 10.2433 16.6667H6.42333ZM8.33333 1.66667C7.00725 1.66667 5.73548 2.19345 4.7978 3.13113C3.86012 4.06881 3.33333 5.34058 3.33333 6.66667V11.0858L1.66667 13.5858V15H15V13.5858L13.3333 11.0858V6.66667C13.3333 5.34058 12.8065 4.06881 11.8689 3.13113C10.9312 2.19345 9.65942 1.66667 8.33333 1.66667Z" fill="#77CCD9"/>
</svg>
