<svg width="20" height="20" viewBox="0 0 20 20" fill="none" xmlns="http://www.w3.org/2000/svg">
<path d="M0 7C0 5.114 -5.96046e-08 4.172 0.586 3.586C1.172 3 2.114 3 4 3H16C17.886 3 18.828 3 19.414 3.586C20 4.172 20 5.114 20 7C20 7.471 20 7.707 19.854 7.854C19.707 8 19.47 8 19 8H1C0.529 8 0.293 8 0.146 7.854C-8.9407e-08 7.707 0 7.47 0 7Z" fill="#313131"/>
<path fill-rule="evenodd" clip-rule="evenodd" d="M0.586 19.414C-5.96046e-08 18.828 0 17.886 0 16V11C0 10.529 -8.9407e-08 10.293 0.146 10.146C0.293 10 0.53 10 1 10H19C19.471 10 19.707 10 19.854 10.146C20 10.293 20 10.529 20 11V16C20 17.886 20 18.828 19.414 19.414C18.828 20 17.886 20 16 20H4C2.114 20 1.172 20 0.586 19.414ZM6 14C5.73478 14 5.48043 14.1054 5.29289 14.2929C5.10536 14.4804 5 14.7348 5 15C5 15.2652 5.10536 15.5196 5.29289 15.7071C5.48043 15.8946 5.73478 16 6 16H14C14.2652 16 14.5196 15.8946 14.7071 15.7071C14.8946 15.5196 15 15.2652 15 15C15 14.7348 14.8946 14.4804 14.7071 14.2929C14.5196 14.1054 14.2652 14 14 14H6Z" fill="#313131"/>
<path d="M5 1V4M15 1V4" stroke="#313131" stroke-width="2" stroke-linecap="round"/>
</svg>
