<svg width="16" height="16" viewBox="0 0 16 16" fill="none" xmlns="http://www.w3.org/2000/svg">
<path fill-rule="evenodd" clip-rule="evenodd" d="M3.99069 0.654835C3.90269 0.655873 3.81576 0.674327 3.73492 0.709132C3.65409 0.743936 3.58094 0.794403 3.51971 0.857619C3.45847 0.920836 3.41036 0.995552 3.37815 1.07746C3.34594 1.15936 3.33027 1.24683 3.33203 1.33483V1.99882H1.33339C1.2454 1.99847 1.1582 2.01554 1.07684 2.04905C0.995471 2.08256 0.921545 2.13185 0.859322 2.19407C0.797099 2.2563 0.747811 2.33022 0.714299 2.41159C0.680787 2.49295 0.663715 2.58015 0.664068 2.66814V14.6667C0.663715 14.7547 0.680787 14.8418 0.714299 14.9232C0.747811 15.0046 0.797099 15.0785 0.859322 15.1407C0.921545 15.203 0.995471 15.2522 1.07684 15.2858C1.1582 15.3193 1.2454 15.3363 1.33339 15.336H14.6652C14.7532 15.3363 14.8404 15.3193 14.9218 15.2858C15.0031 15.2522 15.0771 15.203 15.1393 15.1407C15.2015 15.0785 15.2508 15.0046 15.2843 14.9232C15.3178 14.8418 15.3349 14.7547 15.3345 14.6667V2.66814C15.3349 2.58015 15.3178 2.49295 15.2843 2.41159C15.2508 2.33022 15.2015 2.2563 15.1393 2.19407C15.0771 2.13185 15.0031 2.08256 14.9218 2.04905C14.8404 2.01554 14.7532 1.99847 14.6652 1.99882H12.6679V1.33483C12.6679 1.15784 12.5976 0.988104 12.4725 0.862956C12.3473 0.737809 12.1776 0.667501 12.0006 0.667501C11.8236 0.667501 11.6539 0.737809 11.5287 0.862956C11.4036 0.988104 11.3333 1.15784 11.3333 1.33483V1.99882H8.66663V1.33483C8.66663 1.15784 8.59633 0.988104 8.47118 0.862956C8.34603 0.737809 8.17629 0.667501 7.99931 0.667501C7.82232 0.667501 7.65259 0.737809 7.52744 0.862956C7.40229 0.988104 7.33198 1.15784 7.33198 1.33483V1.99882H4.66535V1.33483C4.66714 1.24549 4.65096 1.1567 4.61776 1.07374C4.58456 0.990777 4.53501 0.915338 4.47208 0.851904C4.40914 0.788471 4.33409 0.738337 4.2514 0.704483C4.1687 0.670628 4.08004 0.653744 3.99069 0.654835ZM1.99738 3.33347H3.33203V4.00279C3.31203 4.91145 4.68535 4.91145 4.66535 4.00279V3.33347H7.33198V4.00279C7.33198 4.89278 8.66663 4.89278 8.66663 4.00279V3.33347H11.3333V4.00279C11.3333 4.89278 12.6679 4.89278 12.6679 4.00279V3.33347H14.0012V6.0001H1.99738V3.33347ZM1.99738 7.33342H14.0012V14.0027H1.99738V7.33342ZM6.66666 8.66673C6.48985 8.66673 6.32028 8.73697 6.19526 8.86199C6.07024 8.98702 6 9.15658 6 9.33339C6 9.5102 6.07024 9.67977 6.19526 9.80479C6.32028 9.92981 6.48985 10.0001 6.66666 10.0001C6.84347 10.0001 7.01303 9.92981 7.13806 9.80479C7.26308 9.67977 7.33332 9.5102 7.33332 9.33339C7.33332 9.15658 7.26308 8.98702 7.13806 8.86199C7.01303 8.73697 6.84347 8.66673 6.66666 8.66673ZM9.33329 8.66673C9.15648 8.66673 8.98692 8.73697 8.86189 8.86199C8.73687 8.98702 8.66663 9.15658 8.66663 9.33339C8.66663 9.5102 8.73687 9.67977 8.86189 9.80479C8.98692 9.92981 9.15648 10.0001 9.33329 10.0001C9.5101 10.0001 9.67967 9.92981 9.80469 9.80479C9.92971 9.67977 9.99995 9.5102 9.99995 9.33339C9.99995 9.15658 9.92971 8.98702 9.80469 8.86199C9.67967 8.73697 9.5101 8.66673 9.33329 8.66673ZM11.9999 8.66673C11.8231 8.66673 11.6535 8.73697 11.5285 8.86199C11.4035 8.98702 11.3333 9.15658 11.3333 9.33339C11.3333 9.5102 11.4035 9.67977 11.5285 9.80479C11.6535 9.92981 11.8231 10.0001 11.9999 10.0001C12.1767 10.0001 12.3463 9.92981 12.4713 9.80479C12.5963 9.67977 12.6666 9.5102 12.6666 9.33339C12.6666 9.15658 12.5963 8.98702 12.4713 8.86199C12.3463 8.73697 12.1767 8.66673 11.9999 8.66673ZM4.00003 11.3334C3.82322 11.3334 3.65365 11.4036 3.52863 11.5286C3.4036 11.6536 3.33337 11.8232 3.33337 12C3.33337 12.1768 3.4036 12.3464 3.52863 12.4714C3.65365 12.5964 3.82322 12.6667 4.00003 12.6667C4.17683 12.6667 4.3464 12.5964 4.47142 12.4714C4.59645 12.3464 4.66668 12.1768 4.66668 12C4.66668 11.8232 4.59645 11.6536 4.47142 11.5286C4.3464 11.4036 4.17683 11.3334 4.00003 11.3334ZM6.66666 11.3334C6.48985 11.3334 6.32028 11.4036 6.19526 11.5286C6.07024 11.6536 6 11.8232 6 12C6 12.1768 6.07024 12.3464 6.19526 12.4714C6.32028 12.5964 6.48985 12.6667 6.66666 12.6667C6.84347 12.6667 7.01303 12.5964 7.13806 12.4714C7.26308 12.3464 7.33332 12.1768 7.33332 12C7.33332 11.8232 7.26308 11.6536 7.13806 11.5286C7.01303 11.4036 6.84347 11.3334 6.66666 11.3334ZM9.33329 11.3334C9.15648 11.3334 8.98692 11.4036 8.86189 11.5286C8.73687 11.6536 8.66663 11.8232 8.66663 12C8.66663 12.1768 8.73687 12.3464 8.86189 12.4714C8.98692 12.5964 9.15648 12.6667 9.33329 12.6667C9.5101 12.6667 9.67967 12.5964 9.80469 12.4714C9.92971 12.3464 9.99995 12.1768 9.99995 12C9.99995 11.8232 9.92971 11.6536 9.80469 11.5286C9.67967 11.4036 9.5101 11.3334 9.33329 11.3334Z" fill="#77CCD9"/>
</svg>
