<svg width="20" height="20" viewBox="0 0 20 20" fill="none" xmlns="http://www.w3.org/2000/svg">
<path d="M10.0417 16.6668C8.18055 16.6668 6.59722 16.021 5.29167 14.7293C3.98611 13.4377 3.33333 11.8613 3.33333 10.0002V9.85433L2.58333 10.6043C2.43056 10.7571 2.23611 10.8335 2 10.8335C1.76389 10.8335 1.56944 10.7571 1.41667 10.6043C1.26389 10.4516 1.1875 10.2571 1.1875 10.021C1.1875 9.78488 1.26389 9.59044 1.41667 9.43766L3.58333 7.271C3.75 7.10433 3.94444 7.021 4.16667 7.021C4.38889 7.021 4.58333 7.10433 4.75 7.271L6.91667 9.43766C7.06944 9.59044 7.14583 9.78488 7.14583 10.021C7.14583 10.2571 7.06944 10.4516 6.91667 10.6043C6.76389 10.7571 6.56944 10.8335 6.33333 10.8335C6.09722 10.8335 5.90278 10.7571 5.75 10.6043L5 9.85433V10.0002C5 11.3891 5.48972 12.5696 6.46917 13.5418C7.44861 14.5141 8.63944 15.0002 10.0417 15.0002C10.2639 15.0002 10.4828 14.9863 10.6983 14.9585C10.9139 14.9307 11.1256 14.8821 11.3333 14.8127C11.5694 14.7432 11.7917 14.7502 12 14.8335C12.2083 14.9168 12.3681 15.0627 12.4792 15.271C12.5903 15.4932 12.6008 15.7118 12.5108 15.9268C12.4208 16.1418 12.2575 16.2843 12.0208 16.3543C11.7014 16.4654 11.375 16.5454 11.0417 16.5943C10.7083 16.6432 10.375 16.6674 10.0417 16.6668ZM9.95833 5.00016C9.73611 5.00016 9.5175 5.01405 9.3025 5.04183C9.0875 5.06961 8.87555 5.11822 8.66667 5.18766C8.43055 5.25711 8.205 5.25016 7.99 5.16683C7.775 5.0835 7.61167 4.93766 7.5 4.72933C7.38833 4.521 7.37778 4.30933 7.46833 4.09433C7.55889 3.87933 7.71528 3.73683 7.9375 3.66683C8.27083 3.55572 8.60417 3.47238 8.9375 3.41683C9.27083 3.36127 9.61111 3.3335 9.95833 3.3335C11.8194 3.3335 13.4028 3.97933 14.7083 5.271C16.0139 6.56266 16.6667 8.13905 16.6667 10.0002V10.146L17.4167 9.396C17.5694 9.24322 17.7639 9.16683 18 9.16683C18.2361 9.16683 18.4306 9.24322 18.5833 9.396C18.7361 9.54877 18.8125 9.74322 18.8125 9.97933C18.8125 10.2154 18.7361 10.4099 18.5833 10.5627L16.4167 12.7293C16.25 12.896 16.0556 12.9793 15.8333 12.9793C15.6111 12.9793 15.4167 12.896 15.25 12.7293L13.0833 10.5627C12.9306 10.4099 12.8542 10.2154 12.8542 9.97933C12.8542 9.74322 12.9306 9.54877 13.0833 9.396C13.2361 9.24322 13.4306 9.16683 13.6667 9.16683C13.9028 9.16683 14.0972 9.24322 14.25 9.396L15 10.146V10.0002C15 8.61127 14.5103 7.43072 13.5308 6.4585C12.5514 5.48627 11.3606 5.00016 9.95833 5.00016Z" fill="#77CCD9"/>
</svg>
