<svg width="16" height="16" viewBox="0 0 16 16" fill="none" xmlns="http://www.w3.org/2000/svg">
<path fill-rule="evenodd" clip-rule="evenodd" d="M2.61922 3.99974V3.3335C2.61922 2.96531 2.32075 2.66683 1.95256 2.66683C1.58437 2.66683 1.28589 2.96531 1.28589 3.3335V6.00016C1.28589 6.36835 1.58437 6.66683 1.95256 6.66683H4.61922C4.98741 6.66683 5.28589 6.36835 5.28589 6.00016C5.28589 5.63197 4.98741 5.3335 4.61922 5.3335H3.33256C4.25521 3.73853 5.97934 2.66683 7.95255 2.66683C10.8981 2.66683 13.2859 5.05464 13.2859 8.00016C13.2859 10.9457 10.8981 13.3335 7.95255 13.3335C5.41522 13.3335 3.29029 11.561 2.75137 9.18597C2.6699 8.82691 2.31277 8.60188 1.95371 8.68336C1.59465 8.76483 1.36962 9.12196 1.45109 9.48102C2.12479 12.45 4.77899 14.6668 7.95255 14.6668C11.6345 14.6668 14.6192 11.6821 14.6192 8.00016C14.6192 4.31826 11.6345 1.3335 7.95255 1.3335C5.77098 1.3335 3.83509 2.38127 2.61922 3.99974ZM7.95255 4.66683C8.32074 4.66683 8.61922 4.96531 8.61922 5.3335V7.72402L10.424 9.52876C10.6843 9.78911 10.6843 10.2112 10.424 10.4716C10.1636 10.7319 9.7415 10.7319 9.48115 10.4716L7.48115 8.47157C7.35613 8.34654 7.28589 8.17697 7.28589 8.00016V5.3335C7.28589 4.96531 7.58436 4.66683 7.95255 4.66683Z" fill="#00B8DB"/>
</svg>
