<svg width="15" height="15" viewBox="0 0 15 15" fill="none" xmlns="http://www.w3.org/2000/svg">
<path fill-rule="evenodd" clip-rule="evenodd" d="M7.33857 0C3.29596 0 0 3.29129 0 7.33324C0 11.3752 3.29662 14.6705 7.33857 14.6705C11.3805 14.6705 14.6705 11.3752 14.6705 7.33324C14.6705 3.29129 11.3805 0 7.33857 0ZM7.33857 1.33332C8.1268 1.332 8.90754 1.4863 9.636 1.78738C10.3645 2.08845 11.0263 2.53037 11.5836 3.0878C12.1409 3.64522 12.5827 4.30718 12.8836 5.03571C13.1845 5.76424 13.3387 6.54501 13.3372 7.33324C13.3387 8.12168 13.1847 8.90268 12.8839 9.63148C12.583 10.3603 12.1413 11.0225 11.5841 11.5803C11.0268 12.1381 10.3649 12.5804 9.63641 12.8818C8.90788 13.1833 8.12702 13.338 7.33857 13.3372C6.54979 13.3381 5.76857 13.1835 5.03963 12.8821C4.31069 12.5808 3.64835 12.1386 3.09054 11.5809C2.53272 11.0232 2.09039 10.361 1.78886 9.63209C1.48733 8.90321 1.33253 8.12202 1.33332 7.33324C1.33332 4.01195 4.01728 1.33332 7.33857 1.33332ZM7.32791 2.6573C7.23979 2.65816 7.15272 2.67649 7.07173 2.71122C6.99074 2.74594 6.91743 2.79638 6.85606 2.85961C6.79468 2.92285 6.74646 2.99762 6.71416 3.07962C6.68187 3.16161 6.66615 3.24919 6.66792 3.33729V7.33324C6.66828 7.42097 6.68596 7.50776 6.71994 7.58864C6.75392 7.66952 6.80352 7.7429 6.86591 7.80457L9.53255 10.4725C9.59423 10.536 9.66793 10.5866 9.74936 10.6213C9.83079 10.6559 9.91831 10.6741 10.0068 10.6746C10.0953 10.6751 10.183 10.658 10.2649 10.6242C10.3467 10.5905 10.421 10.5408 10.4834 10.478C10.5458 10.4152 10.5951 10.3407 10.6284 10.2587C10.6616 10.1767 10.6783 10.0888 10.6773 10.0003C10.6763 9.91183 10.6576 9.82441 10.6225 9.74318C10.5873 9.66195 10.5364 9.58854 10.4725 9.52721L8.00257 7.05724V3.33729C8.00436 3.24795 7.98817 3.15916 7.95497 3.0762C7.92177 2.99324 7.87223 2.9178 7.80929 2.85437C7.74636 2.79094 7.67131 2.7408 7.58861 2.70695C7.50592 2.67309 7.41726 2.65621 7.32791 2.6573Z" fill="#77CCD9"/>
</svg>
