<svg width="11" height="11" viewBox="0 0 11 11" fill="none" xmlns="http://www.w3.org/2000/svg">
<path d="M9.375 5.375C9.375 6.43587 8.95357 7.45328 8.20343 8.20343C7.45328 8.95357 6.43587 9.375 5.375 9.375C4.31413 9.375 3.29672 8.95357 2.54657 8.20343C1.79643 7.45328 1.375 6.43587 1.375 5.375C1.375 4.31413 1.79643 3.29672 2.54657 2.54657C3.29672 1.79643 4.31413 1.375 5.375 1.375C6.43587 1.375 7.45328 1.79643 8.20343 2.54657C8.95357 3.29672 9.375 4.31413 9.375 5.375Z" stroke="#00B8DB" stroke-width="0.75"/>
<path d="M6.875 5.375C6.875 5.77282 6.71696 6.15436 6.43566 6.43566C6.15436 6.71696 5.77282 6.875 5.375 6.875C4.97718 6.875 4.59564 6.71696 4.31434 6.43566C4.03304 6.15436 3.875 5.77282 3.875 5.375C3.875 4.97718 4.03304 4.59564 4.31434 4.31434C4.59564 4.03304 4.97718 3.875 5.375 3.875C5.77282 3.875 6.15436 4.03304 6.43566 4.31434C6.71696 4.59564 6.875 4.97718 6.875 5.375Z" stroke="#00B8DB" stroke-width="0.75"/>
<path d="M0.375 5.375H1.375M9.375 5.375H10.375M5.375 1.375V0.375M5.375 10.375V9.375" stroke="#00B8DB" stroke-width="0.75" stroke-linecap="round"/>
</svg>
