<svg width="24" height="24" viewBox="0 0 24 24" fill="none" xmlns="http://www.w3.org/2000/svg">
<g clip-path="url(#clip0_7442_36971)">
<path d="M10.5 20.2499C8.98346 20.2505 7.48396 19.9301 6.10002 19.3099C6.06296 19.2907 6.02179 19.2806 5.98002 19.2806C5.93824 19.2806 5.89708 19.2907 5.86002 19.3099C5.82574 19.3331 5.79774 19.3644 5.77854 19.4011C5.75934 19.4377 5.74954 19.4786 5.75002 19.5199V21.5199C5.75002 21.6525 5.80269 21.7797 5.89646 21.8735C5.99023 21.9673 6.11741 22.0199 6.25002 22.0199H7.50002C7.56632 22.0199 7.62991 22.0463 7.67679 22.0932C7.72368 22.14 7.75002 22.2036 7.75002 22.2699V23.4999C7.75002 23.6325 7.8027 23.7597 7.89646 23.8535C7.99023 23.9473 8.11741 23.9999 8.25002 23.9999H13.25C13.3826 23.9999 13.5098 23.9473 13.6036 23.8535C13.6973 23.7597 13.75 23.6325 13.75 23.4999V22.2499C13.75 22.1836 13.7764 22.12 13.8232 22.0732C13.8701 22.0263 13.9337 21.9999 14 21.9999H15.25C15.3826 21.9999 15.5098 21.9473 15.6036 21.8535C15.6973 21.7597 15.75 21.6325 15.75 21.4999V19.2999C15.7504 19.2574 15.7395 19.2156 15.7184 19.1787C15.6973 19.1418 15.6668 19.1112 15.63 19.0899C15.5939 19.0678 15.5524 19.0562 15.51 19.0562C15.4677 19.0562 15.4261 19.0678 15.39 19.0899C13.8752 19.8593 12.199 20.257 10.5 20.2499Z" fill="#313131"/>
<path d="M22.3098 18.94L18.1798 14.81C18.1404 14.766 18.1187 14.709 18.1187 14.65C18.1187 14.591 18.1404 14.534 18.1798 14.49C19.4834 12.5857 20.0291 10.2633 19.7097 7.97773C19.3904 5.69217 18.2292 3.6082 16.4535 2.13415C14.6779 0.660099 12.4158 -0.0978032 10.1105 0.0089424C7.8052 0.115688 5.62284 1.07939 3.99101 2.71122C2.35917 4.34306 1.39547 6.52542 1.28873 8.83071C1.18198 11.136 1.93988 13.3981 3.41394 15.1737C4.88799 16.9494 6.97195 18.1106 9.25752 18.43C11.5431 18.7493 13.8655 18.2037 15.7698 16.9C15.8138 16.8606 15.8708 16.8389 15.9298 16.8389C15.9888 16.8389 16.0458 16.8606 16.0898 16.9L20.2198 21.03C20.501 21.3109 20.8823 21.4687 21.2798 21.4687C21.6773 21.4687 22.0585 21.3109 22.3398 21.03C22.61 20.7474 22.7584 20.3699 22.7527 19.9789C22.7471 19.5879 22.588 19.2148 22.3098 18.94ZM8.51979 7.57001C8.53041 7.53181 8.55072 7.497 8.57875 7.46897C8.60679 7.44094 8.64159 7.42062 8.67979 7.41001C8.71202 7.3925 8.74811 7.38333 8.78479 7.38333C8.82147 7.38333 8.85756 7.3925 8.88979 7.41001C9.74687 7.94725 10.7383 8.23149 11.7498 8.23001C12.0853 8.2247 12.4198 8.19125 12.7498 8.13001C12.7637 8.12297 12.7792 8.11931 12.7948 8.11931C12.8104 8.11931 12.8258 8.12297 12.8398 8.13001C12.8489 8.15589 12.8489 8.18412 12.8398 8.21001C12.8398 8.80674 12.6027 9.37904 12.1808 9.801C11.7588 10.223 11.1865 10.46 10.5898 10.46C9.99305 10.46 9.42076 10.223 8.9988 9.801C8.57684 9.37904 8.33979 8.80674 8.33979 8.21001C8.36702 7.98879 8.42772 7.77299 8.51979 7.57001ZM3.24979 9.26001C3.24925 8.05748 3.54742 6.87365 4.11752 5.81485C4.68763 4.75605 5.51181 3.85544 6.51603 3.19393C7.52026 2.53241 8.67308 2.1307 9.87094 2.02489C11.0688 1.91907 12.2742 2.11246 13.3788 2.58768C14.4835 3.0629 15.4528 3.80508 16.1997 4.74753C16.9466 5.68999 17.4477 6.80322 17.6579 7.98722C17.8682 9.17122 17.7811 10.3889 17.4044 11.5309C17.0277 12.6729 16.3732 13.7035 15.4998 14.53C15.4771 14.5541 15.4488 14.5722 15.4174 14.5827C15.3859 14.5932 15.3524 14.5957 15.3198 14.59C15.2876 14.5856 15.2566 14.5744 15.2291 14.5572C15.2015 14.5399 15.1779 14.517 15.1598 14.49C14.575 13.5725 13.7286 12.8515 12.7298 12.42C12.6875 12.3995 12.6519 12.3676 12.6269 12.3278C12.602 12.288 12.5888 12.242 12.5888 12.195C12.5888 12.148 12.602 12.102 12.6269 12.0622C12.6519 12.0224 12.6875 11.9905 12.7298 11.97C13.5549 11.5171 14.2059 10.8026 14.5802 9.93899C14.9544 9.07537 15.0307 8.11177 14.797 7.20003C14.5632 6.28829 14.0327 5.48024 13.2891 4.90322C12.5455 4.3262 11.631 4.01302 10.6898 4.01302C9.74856 4.01302 8.83409 4.3262 8.09047 4.90322C7.34686 5.48024 6.81638 6.28829 6.58262 7.20003C6.34887 8.11177 6.42514 9.07537 6.79941 9.93899C7.17368 10.8026 7.82466 11.5171 8.64979 11.97C8.69159 11.9914 8.72618 12.0246 8.74929 12.0655C8.7724 12.1064 8.783 12.1532 8.77979 12.2C8.77721 12.2482 8.76073 12.2946 8.73233 12.3337C8.70394 12.3727 8.66485 12.4027 8.61979 12.42C7.54344 12.8196 6.65295 13.6032 6.11979 14.62C6.10411 14.6538 6.08045 14.6833 6.05083 14.706C6.02122 14.7286 5.98654 14.7437 5.94979 14.75C5.91555 14.7668 5.87792 14.7755 5.83979 14.7755C5.80166 14.7755 5.76403 14.7668 5.72979 14.75C4.94755 14.0657 4.32134 13.2215 3.89349 12.2744C3.46564 11.3272 3.24613 10.2993 3.24979 9.26001Z" fill="#313131"/>
</g>
<defs>
<clipPath id="clip0_7442_36971">
<rect width="24" height="24" fill="white"/>
</clipPath>
</defs>
</svg>
