<svg width="12" height="12" viewBox="0 0 12 12" fill="none" xmlns="http://www.w3.org/2000/svg">
<g clip-path="url(#clip0_7438_36635)">
<path d="M7.83997 7.2935C9.58497 7.2935 11 5.8845 11 4.1465C11 2.4085 9.58497 1 7.83997 1C6.09497 1 4.68147 2.409 4.68147 4.1465C4.68147 4.9515 5.04847 5.537 5.04847 5.537L1.22747 9.342C1.05597 9.513 0.815967 9.957 1.22747 10.367L1.66847 10.806C1.83997 10.9525 2.27097 11.1575 2.62347 10.806L3.13847 10.294C3.65247 10.806 4.24047 10.5135 4.46097 10.2205C4.82797 9.7085 4.38747 9.196 4.38747 9.196L4.53447 9.0495C5.23947 9.7525 5.85697 9.3425 6.07747 9.0495C6.44497 8.5375 6.07747 8.025 6.07747 8.025C5.93047 7.7325 5.63647 7.7325 6.00397 7.3665L6.44497 6.9275C6.79747 7.22 7.52247 7.2935 7.84097 7.2935H7.83997Z" stroke="#00B8DB" stroke-width="0.75" stroke-linejoin="round"/>
<path d="M8.94253 4.14683C8.94186 4.43848 8.8254 4.71793 8.61875 4.92374C8.4121 5.12955 8.13218 5.24486 7.84053 5.24433C7.54887 5.24486 7.26895 5.12955 7.0623 4.92374C6.85565 4.71793 6.73919 4.43848 6.73853 4.14683C6.73879 4.00238 6.7675 3.85939 6.82302 3.72603C6.87855 3.59267 6.95979 3.47156 7.06212 3.3696C7.16445 3.26764 7.28586 3.18683 7.41942 3.1318C7.55298 3.07676 7.69607 3.04857 7.84053 3.04883C7.98498 3.04857 8.12807 3.07676 8.26163 3.1318C8.39519 3.18683 8.5166 3.26764 8.61893 3.3696C8.72126 3.47156 8.80251 3.59267 8.85803 3.72603C8.91355 3.85939 8.94226 4.00238 8.94253 4.14683Z" stroke="#00B8DB" stroke-width="0.75"/>
</g>
<defs>
<clipPath id="clip0_7438_36635">
<rect width="12" height="12" fill="white"/>
</clipPath>
</defs>
</svg>
