<svg width="20" height="20" viewBox="0 0 20 20" fill="none" xmlns="http://www.w3.org/2000/svg">
<path d="M8.75 11.0938C8.91576 11.0938 9.07473 11.0279 9.19194 10.9107C9.30915 10.7935 9.375 10.6345 9.375 10.4688C9.375 10.303 9.30915 10.144 9.19194 10.0268C9.07473 9.9096 8.91576 9.84375 8.75 9.84375C8.137 9.85238 7.52955 9.72661 6.97037 9.47529C7.60487 8.77815 8.06517 7.94059 8.31356 7.03125H8.75C8.91576 7.03125 9.07473 6.9654 9.19194 6.84819C9.30915 6.73098 9.375 6.57201 9.375 6.40625C9.375 6.24049 9.30915 6.08152 9.19194 5.96431C9.07473 5.8471 8.91576 5.78125 8.75 5.78125H6.5625V5.15625C6.5625 4.99049 6.49665 4.83152 6.37944 4.71431C6.26223 4.5971 6.10326 4.53125 5.9375 4.53125C5.77174 4.53125 5.61277 4.5971 5.49556 4.71431C5.37835 4.83152 5.3125 4.99049 5.3125 5.15625V5.78125H3.125C2.95924 5.78125 2.80027 5.8471 2.68306 5.96431C2.56585 6.08152 2.5 6.24049 2.5 6.40625C2.5 6.57201 2.56585 6.73098 2.68306 6.84819C2.80027 6.9654 2.95924 7.03125 3.125 7.03125H6.99875C6.77688 7.67528 6.41566 8.26243 5.94084 8.75084C5.62874 8.43574 5.36663 8.07481 5.16357 7.68053C5.12581 7.60755 5.07403 7.54273 5.01119 7.48979C4.94836 7.43685 4.87569 7.39681 4.79737 7.37198C4.71904 7.34716 4.63658 7.33802 4.55472 7.34509C4.47286 7.35217 4.39319 7.37531 4.32029 7.41321C4.24738 7.45111 4.18266 7.50301 4.12984 7.56595C4.07701 7.62889 4.03712 7.70163 4.01244 7.78C3.98776 7.85838 3.97877 7.94085 3.986 8.0227C3.99323 8.10455 4.01653 8.18417 4.05457 8.257C4.28178 8.69851 4.56483 9.10896 4.89675 9.47825C4.34005 9.72833 3.73522 9.8531 3.125 9.84375C2.95924 9.84375 2.80027 9.9096 2.68306 10.0268C2.56585 10.144 2.5 10.303 2.5 10.4688C2.5 10.6345 2.56585 10.7935 2.68306 10.9107C2.80027 11.0279 2.95924 11.0938 3.125 11.0938C4.1115 11.1125 5.08318 10.8518 5.92787 10.3419C6.77797 10.8557 7.75694 11.1165 8.75 11.0938Z" fill="#77CCD9"/>
<path d="M19.375 6.40625H13.125C12.9592 6.40625 12.8003 6.4721 12.6831 6.58931C12.5658 6.70652 12.5 6.86549 12.5 7.03125C12.5 7.19701 12.5658 7.35598 12.6831 7.47319C12.8003 7.5904 12.9592 7.65625 13.125 7.65625H18.75V16.7188H9.82693L11.7926 13.2788C11.843 13.1829 11.8711 13.077 11.875 12.9688V2.65625C11.875 2.49049 11.8091 2.33153 11.6919 2.21432C11.5747 2.09711 11.4158 2.03126 11.25 2.03125H0.625C0.459242 2.03126 0.300276 2.09711 0.183067 2.21432C0.065859 2.33153 8.28727e-06 2.49049 0 2.65625L0 12.9688C8.28727e-06 13.1345 0.065859 13.2935 0.183067 13.4107C0.300276 13.5279 0.459242 13.5937 0.625 13.5938H8.125V17.3438C8.1276 17.5088 8.19436 17.6663 8.31113 17.783C8.4279 17.8997 8.58551 17.9663 8.75055 17.9688H19.375C19.5408 17.9687 19.6997 17.9029 19.8169 17.7857C19.9341 17.6685 20 17.5095 20 17.3438V7.03125C20 6.86549 19.9341 6.70653 19.8169 6.58932C19.6997 6.47211 19.5408 6.40626 19.375 6.40625ZM1.25 3.28125H10.625V12.3438H1.25V3.28125ZM10.1731 13.5938L9.375 14.9904V13.5938H10.1731Z" fill="#77CCD9"/>
<path d="M13.125 12.6562V14.8438C13.125 15.0095 13.1908 15.1685 13.3081 15.2857C13.4253 15.4029 13.5842 15.4688 13.75 15.4688C13.9158 15.4688 14.0747 15.4029 14.1919 15.2857C14.3092 15.1685 14.375 15.0095 14.375 14.8438V14.2188H16.25V14.8438C16.25 15.0095 16.3158 15.1685 16.4331 15.2857C16.5503 15.4029 16.7092 15.4688 16.875 15.4688C17.0408 15.4688 17.1997 15.4029 17.3169 15.2857C17.4342 15.1685 17.5 15.0095 17.5 14.8438V12.6562C17.5 12.0761 17.2695 11.5197 16.8593 11.1095C16.4491 10.6992 15.8927 10.4687 15.3125 10.4688C14.7323 10.4687 14.1759 10.6992 13.7657 11.1095C13.3555 11.5197 13.125 12.0761 13.125 12.6562ZM15.3125 11.7188C15.5611 11.719 15.7994 11.8179 15.9751 11.9936C16.1509 12.1694 16.2497 12.4077 16.25 12.6562V12.9688H14.375V12.6562C14.3753 12.4077 14.4741 12.1694 14.6499 11.9936C14.8256 11.8179 15.0639 11.719 15.3125 11.7188Z" fill="#77CCD9"/>
<path d="M15.3125 9.84375C15.6577 9.84375 15.9375 9.56393 15.9375 9.21875C15.9375 8.87357 15.6577 8.59375 15.3125 8.59375C14.9673 8.59375 14.6875 8.87357 14.6875 9.21875C14.6875 9.56393 14.9673 9.84375 15.3125 9.84375Z" fill="#77CCD9"/>
</svg>
