<svg width="16" height="16" viewBox="0 0 16 16" fill="none" xmlns="http://www.w3.org/2000/svg">
<path d="M12.242 2.25751C11.6856 1.69947 11.0244 1.25693 10.2964 0.955312C9.56845 0.653697 8.78801 0.498962 8 0.500006C7.21199 0.49888 6.43153 0.653577 5.70352 0.955197C4.97551 1.25682 4.31433 1.69941 3.758 2.25751C3.19989 2.81395 2.75726 3.47521 2.45556 4.20329C2.15386 4.93137 1.99904 5.7119 2 6.50001C2 8.25401 2.672 9.8425 3.758 10.992L8 15.5L12.242 10.992C13.328 9.8425 14 8.25401 14 6.50001C14 4.84301 13.328 3.34351 12.242 2.25751ZM11.514 10.3065L8 14.0405L4.4845 10.305C3.5275 9.29151 3 7.94051 3 6.50001C2.99816 5.84308 3.1267 5.19232 3.37817 4.58543C3.62965 3.97854 3.99906 3.42759 4.465 2.96451C4.92808 2.49871 5.47896 2.12943 6.08576 1.87804C6.69255 1.62665 7.3432 1.49816 8 1.50001C8.65686 1.49814 9.30755 1.62668 9.91436 1.87816C10.5212 2.12963 11.072 2.49906 11.535 2.96501C12.0009 3.42804 12.3703 3.9789 12.6217 4.5857C12.8732 5.1925 13.0018 5.84317 13 6.50001C13 7.94051 12.4725 9.29151 11.514 10.3065Z" fill="#77CCD9"/>
<path d="M8 8.5C9.10457 8.5 10 7.60457 10 6.5C10 5.39543 9.10457 4.5 8 4.5C6.89543 4.5 6 5.39543 6 6.5C6 7.60457 6.89543 8.5 8 8.5Z" fill="#77CCD9"/>
</svg>
