<svg width="14" height="15" viewBox="0 0 14 15" fill="none" xmlns="http://www.w3.org/2000/svg">
<path d="M9.66667 2.66667C10.0203 2.66667 10.3594 2.52619 10.6095 2.27614C10.8595 2.02609 11 1.68696 11 1.33333C11 0.979711 10.8595 0.640573 10.6095 0.390524C10.3594 0.140476 10.0203 0 9.66667 0C9.31304 0 8.97391 0.140476 8.72386 0.390524C8.47381 0.640573 8.33333 0.979711 8.33333 1.33333C8.33333 1.68696 8.47381 2.02609 8.72386 2.27614C8.97391 2.52619 9.31304 2.66667 9.66667 2.66667ZM7.26667 11.9333L7.93333 9L9.33333 10.3333V14.3333H10.6667V9.33333L9.26667 8L9.66667 6C10.1235 6.52342 10.687 6.94297 11.3195 7.23045C11.9519 7.51793 12.6386 7.66667 13.3333 7.66667V6.33333C12.16 6.35333 11.0667 5.74 10.4667 4.73333L9.8 3.66667C9.56 3.26667 9.13333 3 8.66667 3C8.46667 3 8.33333 3.06667 8.13333 3.06667L4.66667 4.53333V7.66667H6V5.4L7.2 4.93333L6.13333 10.3333L2.86667 9.66667L2.6 11L7.26667 11.9333ZM1.33333 5C1.15652 5 0.986953 4.92976 0.861929 4.80474C0.736905 4.67971 0.666667 4.51014 0.666667 4.33333C0.666667 4.15652 0.736905 3.98695 0.861929 3.86193C0.986953 3.7369 1.15652 3.66667 1.33333 3.66667H3.33333V5H1.33333ZM2 2.33333C1.82319 2.33333 1.65362 2.2631 1.5286 2.13807C1.40357 2.01305 1.33333 1.84348 1.33333 1.66667C1.33333 1.48986 1.40357 1.32029 1.5286 1.19526C1.65362 1.07024 1.82319 1 2 1H5.33333V2.33333H2ZM0.666667 7.66667C0.489856 7.66667 0.320286 7.59643 0.195262 7.4714C0.0702379 7.34638 0 7.17681 0 7C0 6.82319 0.0702379 6.65362 0.195262 6.5286C0.320286 6.40357 0.489856 6.33333 0.666667 6.33333H3.33333V7.66667H0.666667Z" fill="white"/>
</svg>
